<?xml version="1.0" standalone="no"?>
<!DOCTYPE svg PUBLIC "-//W3C//DTD SVG 20010904//EN"
 "http://www.w3.org/TR/2001/REC-SVG-20010904/DTD/svg10.dtd">
<svg version="1.0" xmlns="http://www.w3.org/2000/svg"
 width="64.000000pt" height="64.000000pt" viewBox="0 0 64.000000 64.000000"
 preserveAspectRatio="xMidYMid meet">

<g transform="translate(0.000000,64.000000) scale(0.100000,-0.100000)"
fill="#000000" stroke="none">
<path d="M362 624 c-12 -8 -22 -22 -22 -30 0 -25 30 -74 45 -74 8 0 15 -4 15
-9 0 -6 17 -8 38 -5 l37 4 -40 -15 c-29 -12 -56 -14 -97 -10 -54 7 -58 6 -58
-14 0 -18 6 -21 43 -22 l42 -1 -32 -9 c-17 -5 -41 -20 -51 -34 -19 -24 -20
-24 -25 -5 -10 40 -87 17 -87 -25 0 -30 24 -33 58 -9 13 9 24 14 26 13 10 -16
22 -91 15 -95 -21 -13 -4 -22 66 -37 94 -21 95 -21 95 2 0 10 11 26 25 35 20
13 25 25 25 60 0 47 -20 79 -61 95 -22 9 -21 10 13 10 69 2 120 45 68 58 -17
4 -19 11 -13 49 4 35 2 49 -12 64 -22 24 -81 27 -113 4z m100 -11 c21 -19 24
-63 5 -63 -9 0 -12 10 -9 30 4 25 1 30 -17 30 -11 0 -21 -5 -21 -11 0 -7 -10
-9 -24 -5 -18 4 -28 1 -35 -11 -9 -16 -10 -16 -11 3 0 39 78 58 112 27z m-13
-68 c26 -29 9 -35 -22 -7 -19 16 -20 16 -14 0 4 -10 2 -18 -3 -18 -6 0 -10 5
-10 10 0 6 -3 9 -7 9 -24 -4 -25 3 -3 15 34 19 32 19 59 -9z m55 -54 c3 -5 -8
-11 -25 -15 -51 -10 -67 -6 -34 9 35 17 52 18 59 6z m-171 -18 c-7 -2 -21 -2
-30 0 -10 3 -4 5 12 5 17 0 24 -2 18 -5z m115 -69 c36 -41 25 -122 -15 -107
-7 3 -13 2 -12 -3 1 -5 1 -19 0 -31 -2 -34 -21 -28 -21 7 0 17 -4 30 -10 30
-5 0 -10 -11 -10 -25 0 -19 -5 -25 -21 -25 -15 0 -19 4 -15 15 3 8 9 22 13 31
9 24 -19 13 -32 -13 -6 -11 -16 -18 -22 -16 -10 4 -10 10 -2 24 12 23 1 49
-12 28 -5 -9 -10 -5 -14 13 -21 85 113 140 173 72z m-208 -9 c-1 -5 -8 -9 -17
-7 -9 2 -20 -2 -24 -10 -7 -10 -9 -9 -9 4 0 17 16 28 38 25 7 -1 13 -6 12 -12z"/>
<path d="M302 381 c-26 -16 -9 -46 26 -49 31 -3 33 -2 30 25 -3 30 -30 41 -56
24z"/>
<path d="M380 361 c-19 -36 -13 -53 18 -49 20 2 28 9 30 27 6 38 -30 54 -48
22z"/>
<path d="M246 608 c12 -39 58 -98 77 -98 25 0 21 25 -9 57 l-26 28 22 -33 c22
-33 22 -33 2 -21 -11 7 -19 16 -16 20 2 4 0 10 -5 14 -6 3 -7 13 -4 22 5 12 2
15 -10 10 -11 -4 -14 -2 -10 9 3 9 -1 14 -12 14 -12 0 -15 -5 -9 -22z"/>
<path d="M70 601 c-13 -4 -32 -20 -42 -37 -16 -27 -16 -34 -3 -78 19 -64 31
-77 68 -74 17 2 32 -3 35 -10 2 -8 16 -3 40 16 21 16 47 34 60 41 12 6 22 15
22 20 0 4 -10 13 -22 19 -13 6 -17 11 -10 11 19 1 15 65 -6 84 -19 18 -93 22
-142 8z m132 -18 c21 -18 24 -53 6 -71 -9 -9 -8 -15 7 -25 11 -9 14 -16 7 -21
-6 -3 -13 -2 -17 4 -3 5 -11 10 -17 10 -7 0 -7 -5 1 -14 15 -18 -16 -31 -35
-15 -9 8 -14 8 -14 1 0 -6 5 -14 11 -18 8 -4 7 -10 -1 -18 -9 -8 -16 -6 -29
10 -16 20 -18 20 -28 5 -9 -13 -13 -14 -26 -2 -21 17 -13 31 17 31 25 0 46 17
46 37 0 7 -7 13 -15 13 -8 0 -15 5 -15 10 0 17 -38 11 -49 -7 -9 -15 -12 -16
-20 -4 -16 24 7 67 44 81 36 15 107 11 127 -7z"/>
<path d="M137 573 c-10 -9 -8 -45 1 -61 11 -17 62 1 62 22 0 30 -45 58 -63 39z"/>
<path d="M530 543 c0 -12 5 -23 10 -23 18 0 12 -121 -7 -142 -14 -16 -15 -21
-3 -28 24 -15 85 -6 88 13 2 9 -4 20 -12 23 -22 9 -23 132 -1 140 8 4 15 14
15 23 0 14 -9 18 -45 18 -40 0 -45 -3 -45 -24z m58 9 c7 7 15 8 19 4 5 -4 0
-13 -10 -20 -24 -19 -24 -131 1 -159 16 -19 16 -19 -3 -16 -18 4 -20 13 -23
87 -2 64 -6 82 -17 82 -8 0 -15 7 -15 15 0 12 4 13 18 6 13 -7 23 -6 30 1z"/>
<path d="M15 420 c-11 -18 4 -58 22 -62 29 -5 93 3 93 13 0 5 -12 12 -27 15
-16 4 -35 12 -43 19 -27 22 -39 25 -45 15z m42 -30 c14 -11 21 -20 16 -20 -6
0 -20 9 -33 20 -13 11 -20 20 -16 20 4 0 19 -9 33 -20z"/>
<path d="M63 330 c-54 -22 -57 -88 -7 -135 l35 -33 -35 -13 c-41 -15 -43 -20
-19 -55 13 -21 14 -30 5 -45 -16 -26 -17 -26 25 -32 37 -6 63 0 46 12 -5 3
-17 25 -26 47 -15 40 -15 42 4 63 11 11 32 21 46 21 l26 0 -23 25 c-31 32 -42
32 -35 -2 l6 -28 -15 25 c-8 14 -17 23 -19 20 -3 -3 -14 4 -26 14 -46 42 -13
105 59 113 37 4 49 1 63 -15 19 -21 32 -112 16 -112 -16 0 -27 33 -16 51 8 13
7 21 -6 33 -22 23 -44 20 -51 -6 -9 -34 -8 -36 14 -43 11 -3 20 -14 20 -23 0
-32 15 -45 39 -33 18 10 20 19 18 68 -3 44 -9 60 -27 75 -24 19 -79 23 -117 8z
m-3 -210 c0 -5 -4 -10 -9 -10 -6 0 -13 5 -16 10 -3 6 1 10 9 10 9 0 16 -4 16
-10z m30 -84 c0 -9 -7 -12 -20 -9 -11 3 -17 9 -14 14 8 14 34 10 34 -5z"/>
<path d="M512 293 c-11 -10 -22 -34 -25 -54 -5 -32 -2 -38 19 -48 39 -17 59
-13 93 18 24 22 31 38 31 65 l0 36 -49 0 c-32 0 -56 -6 -69 -17z m103 -3 c10
-17 -6 -72 -19 -67 -7 3 -18 -4 -24 -14 -7 -10 -19 -19 -27 -19 -18 0 -18 5
-5 31 7 12 7 19 1 19 -5 0 -13 -9 -16 -20 -3 -11 -11 -20 -16 -20 -12 0 -11 7
2 32 8 15 8 19 0 14 -17 -11 -13 15 6 36 18 20 87 25 98 8z"/>
<path d="M530 265 c0 -8 7 -15 15 -15 8 0 15 7 15 15 0 8 -7 15 -15 15 -8 0
-15 -7 -15 -15z"/>
<path d="M580 265 c-12 -14 -11 -18 0 -25 10 -6 18 -4 23 6 13 23 -7 39 -23
19z"/>
<path d="M44 265 c-13 -34 13 -56 44 -36 12 7 12 12 1 30 -16 24 -37 27 -45 6z"/>
<path d="M300 196 c0 -29 19 -47 46 -41 10 2 31 6 47 10 31 6 37 25 8 25 -10
0 -21 7 -25 15 -3 9 -19 15 -41 15 -30 0 -35 -3 -35 -24z m67 -2 c2 -7 -6 -10
-22 -6 -35 6 -44 24 -9 20 15 -2 29 -8 31 -14z"/>
<path d="M183 160 c-54 -22 -52 -98 2 -124 38 -18 55 -20 55 -6 0 6 6 10 14
10 19 0 46 39 46 65 0 12 -6 29 -13 38 -14 21 -73 30 -104 17z m87 -20 c11
-11 20 -26 20 -34 0 -17 -39 -65 -40 -48 0 18 -21 15 -36 -6 -13 -16 -13 -16
-14 3 l-1 20 -9 -20 c-7 -17 -9 -17 -9 -2 -1 9 -5 17 -10 17 -17 0 -23 40 -10
57 30 35 81 41 109 13z"/>
<path d="M170 115 c-14 -17 -5 -35 19 -35 24 0 30 8 24 31 -6 23 -26 25 -43 4z"/>
<path d="M237 123 c-14 -13 -6 -33 13 -33 22 0 23 1 14 24 -7 17 -16 20 -27 9z"/>
<path d="M615 137 c4 -16 0 -29 -14 -41 -12 -11 -21 -14 -21 -9 0 6 7 16 15
23 8 7 15 17 15 22 0 6 -20 -12 -45 -38 -48 -52 -53 -64 -31 -64 8 0 21 -3 30
-6 10 -4 17 2 21 19 4 14 15 33 26 43 20 18 27 74 9 74 -6 0 -8 -10 -5 -23z
m-42 -82 c-3 -9 -8 -14 -10 -11 -3 3 -2 9 2 15 9 16 15 13 8 -4z"/>
<path d="M372 124 c-49 -34 -15 -124 47 -124 69 0 125 101 72 130 -29 15 -93
12 -119 -6z m116 -6 c20 -20 13 -53 -18 -83 -20 -19 -30 -24 -30 -14 0 12 -2
12 -10 -1 -14 -22 -23 -5 -22 40 1 29 -3 42 -14 47 -13 5 -13 7 -2 14 20 13
82 11 96 -3z m-99 -77 c7 -5 12 -14 9 -21 -2 -7 -10 -4 -22 9 -19 21 -12 28
13 12z"/>
<path d="M431 93 c-13 -14 -12 -18 4 -29 31 -23 47 -17 43 13 -3 32 -27 40
-47 16z"/>
</g>
</svg>
